# Blender v2.79 (sub 0) OBJ File: ''
# www.blender.org
mtllib paddle.mtl
o Cube.001
v -0.250000 1.500000 1.000000
v -0.250000 3.500000 1.000000
v -0.250000 1.500000 -1.000000
v -0.250000 3.500000 -1.000000
v 0.250000 1.500000 1.000000
v 0.250000 3.500000 1.000000
v 0.250000 1.500000 -1.000000
v 0.250000 3.500000 -1.000000
v 0.250000 -0.500000 -0.250000
v 0.250000 -0.500000 0.250000
v -0.250000 -0.500000 0.250000
v -0.250000 -0.500000 -0.250000
v 0.250000 1.500000 -0.250000
v 0.250000 1.500000 0.250000
v -0.250000 1.500000 0.250000
v -0.250000 1.500000 -0.250000
vn -1.0000 0.0000 0.0000
vn 0.0000 0.0000 -1.0000
vn 1.0000 0.0000 0.0000
vn 0.0000 0.0000 1.0000
vn 0.0000 -1.0000 0.0000
vn 0.0000 1.0000 0.0000
usemtl Material
s off
f 1//1 2//1 4//1 3//1
f 3//2 4//2 8//2 7//2
f 7//3 8//3 6//3 5//3
f 5//4 6//4 2//4 1//4
f 3//5 7//5 5//5 1//5
f 8//6 4//6 2//6 6//6
f 9//5 10//5 11//5 12//5
f 13//6 16//6 15//6 14//6
f 9//3 13//3 14//3 10//3
f 10//4 14//4 15//4 11//4
f 11//1 15//1 16//1 12//1
f 13//2 9//2 12//2 16//2
